<svg xmlns="http://www.w3.org/2000/svg" width="24" height="24" viewBox="0 0 24 24" fill="none"><rect width="24" height="24" fill="white"></rect><path fill-rule="evenodd" clip-rule="evenodd" d="M20.5684 11.1616C21.1439 11.5342 21.1439 12.4658 20.5684 12.8384L12.7986 17.8688C12.223 18.2415 11.5036 17.7757 11.5036 17.0305V15.5336H9.64748C9.28994 15.5336 9.00003 15.2085 9.00003 14.8075C9.00003 14.4065 9.28994 14.0814 9.64748 14.0814H11.5036H13.705H13.706H13.7914C14.149 14.0814 14.4389 13.7563 14.4389 13.3554C14.4389 12.9544 14.149 12.6293 13.7914 12.6293H12.2806H11.5036H7.35972C7.00214 12.6293 6.71223 12.3042 6.71223 11.9032C6.71223 11.5022 7.00214 11.1771 7.35972 11.1771H11.5036H12.2806H12.2812H14.9137C15.2712 11.1771 15.5612 10.852 15.5612 10.451C15.5612 10.05 15.2712 9.72495 14.9137 9.72495H13.4029H11.5036H9.99281C9.63523 9.72495 9.34533 9.39986 9.34533 8.99887C9.34533 8.59785 9.63523 8.27278 9.99281 8.27278H11.5036V6.96956C11.5036 6.2243 12.223 5.75852 12.7986 6.13115L20.5684 11.1616ZM6.92805 8.99887C6.92805 9.39986 6.63818 9.72495 6.28057 9.72495C5.92298 9.72495 5.6331 9.39986 5.6331 8.99887C5.6331 8.59785 5.92298 8.27278 6.28057 8.27278C6.63818 8.27278 6.92805 8.59785 6.92805 8.99887ZM4.29497 12C4.29497 12.401 4.00508 12.7261 3.64748 12.7261C3.28989 12.7261 3 12.401 3 12C3 11.599 3.28989 11.274 3.64748 11.274C4.00508 11.274 4.29497 11.599 4.29497 12ZM5.93526 15.7272C6.29285 15.7272 6.58276 15.4021 6.58276 15.0012C6.58276 14.6002 6.29285 14.2751 5.93526 14.2751C5.57766 14.2751 5.28777 14.6002 5.28777 15.0012C5.28777 15.4021 5.57766 15.7272 5.93526 15.7272ZM8.91366 8.99887C8.91366 9.39986 8.62376 9.72495 8.26618 9.72495C7.90864 9.72495 7.6187 9.39986 7.6187 8.99887C7.6187 8.59785 7.90864 8.27278 8.26618 8.27278C8.62376 8.27278 8.91366 8.59785 8.91366 8.99887ZM5.6331 12.7261C5.99069 12.7261 6.28057 12.401 6.28057 12C6.28057 11.599 5.99069 11.274 5.6331 11.274C5.2755 11.274 4.98561 11.599 4.98561 12C4.98561 12.401 5.2755 12.7261 5.6331 12.7261ZM8.56834 15.0012C8.56834 15.4021 8.27847 15.7272 7.92089 15.7272C7.56328 15.7272 7.27338 15.4021 7.27338 15.0012C7.27338 14.6002 7.56328 14.2751 7.92089 14.2751C8.27847 14.2751 8.56834 14.6002 8.56834 15.0012Z" fill="#414BA6"></path></svg>